G04 24025000 pads: a 40 x 25 block stepped 155 x 155 times*
%FSLAX34Y34*%
%MOMM*%
%ADD10C,0.010*%
%SRX155Y155I1.0J1.0*%
D10*
X0Y0D03*
X200Y0D03*
X400Y0D03*
X600Y0D03*
X800Y0D03*
X1000Y0D03*
X1200Y0D03*
X1400Y0D03*
X1600Y0D03*
X1800Y0D03*
X2000Y0D03*
X2200Y0D03*
X2400Y0D03*
X2600Y0D03*
X2800Y0D03*
X3000Y0D03*
X3200Y0D03*
X3400Y0D03*
X3600Y0D03*
X3800Y0D03*
X4000Y0D03*
X4200Y0D03*
X4400Y0D03*
X4600Y0D03*
X4800Y0D03*
X5000Y0D03*
X5200Y0D03*
X5400Y0D03*
X5600Y0D03*
X5800Y0D03*
X6000Y0D03*
X6200Y0D03*
X6400Y0D03*
X6600Y0D03*
X6800Y0D03*
X7000Y0D03*
X7200Y0D03*
X7400Y0D03*
X7600Y0D03*
X7800Y0D03*
X0Y200D03*
X200Y200D03*
X400Y200D03*
X600Y200D03*
X800Y200D03*
X1000Y200D03*
X1200Y200D03*
X1400Y200D03*
X1600Y200D03*
X1800Y200D03*
X2000Y200D03*
X2200Y200D03*
X2400Y200D03*
X2600Y200D03*
X2800Y200D03*
X3000Y200D03*
X3200Y200D03*
X3400Y200D03*
X3600Y200D03*
X3800Y200D03*
X4000Y200D03*
X4200Y200D03*
X4400Y200D03*
X4600Y200D03*
X4800Y200D03*
X5000Y200D03*
X5200Y200D03*
X5400Y200D03*
X5600Y200D03*
X5800Y200D03*
X6000Y200D03*
X6200Y200D03*
X6400Y200D03*
X6600Y200D03*
X6800Y200D03*
X7000Y200D03*
X7200Y200D03*
X7400Y200D03*
X7600Y200D03*
X7800Y200D03*
X0Y400D03*
X200Y400D03*
X400Y400D03*
X600Y400D03*
X800Y400D03*
X1000Y400D03*
X1200Y400D03*
X1400Y400D03*
X1600Y400D03*
X1800Y400D03*
X2000Y400D03*
X2200Y400D03*
X2400Y400D03*
X2600Y400D03*
X2800Y400D03*
X3000Y400D03*
X3200Y400D03*
X3400Y400D03*
X3600Y400D03*
X3800Y400D03*
X4000Y400D03*
X4200Y400D03*
X4400Y400D03*
X4600Y400D03*
X4800Y400D03*
X5000Y400D03*
X5200Y400D03*
X5400Y400D03*
X5600Y400D03*
X5800Y400D03*
X6000Y400D03*
X6200Y400D03*
X6400Y400D03*
X6600Y400D03*
X6800Y400D03*
X7000Y400D03*
X7200Y400D03*
X7400Y400D03*
X7600Y400D03*
X7800Y400D03*
X0Y600D03*
X200Y600D03*
X400Y600D03*
X600Y600D03*
X800Y600D03*
X1000Y600D03*
X1200Y600D03*
X1400Y600D03*
X1600Y600D03*
X1800Y600D03*
X2000Y600D03*
X2200Y600D03*
X2400Y600D03*
X2600Y600D03*
X2800Y600D03*
X3000Y600D03*
X3200Y600D03*
X3400Y600D03*
X3600Y600D03*
X3800Y600D03*
X4000Y600D03*
X4200Y600D03*
X4400Y600D03*
X4600Y600D03*
X4800Y600D03*
X5000Y600D03*
X5200Y600D03*
X5400Y600D03*
X5600Y600D03*
X5800Y600D03*
X6000Y600D03*
X6200Y600D03*
X6400Y600D03*
X6600Y600D03*
X6800Y600D03*
X7000Y600D03*
X7200Y600D03*
X7400Y600D03*
X7600Y600D03*
X7800Y600D03*
X0Y800D03*
X200Y800D03*
X400Y800D03*
X600Y800D03*
X800Y800D03*
X1000Y800D03*
X1200Y800D03*
X1400Y800D03*
X1600Y800D03*
X1800Y800D03*
X2000Y800D03*
X2200Y800D03*
X2400Y800D03*
X2600Y800D03*
X2800Y800D03*
X3000Y800D03*
X3200Y800D03*
X3400Y800D03*
X3600Y800D03*
X3800Y800D03*
X4000Y800D03*
X4200Y800D03*
X4400Y800D03*
X4600Y800D03*
X4800Y800D03*
X5000Y800D03*
X5200Y800D03*
X5400Y800D03*
X5600Y800D03*
X5800Y800D03*
X6000Y800D03*
X6200Y800D03*
X6400Y800D03*
X6600Y800D03*
X6800Y800D03*
X7000Y800D03*
X7200Y800D03*
X7400Y800D03*
X7600Y800D03*
X7800Y800D03*
X0Y1000D03*
X200Y1000D03*
X400Y1000D03*
X600Y1000D03*
X800Y1000D03*
X1000Y1000D03*
X1200Y1000D03*
X1400Y1000D03*
X1600Y1000D03*
X1800Y1000D03*
X2000Y1000D03*
X2200Y1000D03*
X2400Y1000D03*
X2600Y1000D03*
X2800Y1000D03*
X3000Y1000D03*
X3200Y1000D03*
X3400Y1000D03*
X3600Y1000D03*
X3800Y1000D03*
X4000Y1000D03*
X4200Y1000D03*
X4400Y1000D03*
X4600Y1000D03*
X4800Y1000D03*
X5000Y1000D03*
X5200Y1000D03*
X5400Y1000D03*
X5600Y1000D03*
X5800Y1000D03*
X6000Y1000D03*
X6200Y1000D03*
X6400Y1000D03*
X6600Y1000D03*
X6800Y1000D03*
X7000Y1000D03*
X7200Y1000D03*
X7400Y1000D03*
X7600Y1000D03*
X7800Y1000D03*
X0Y1200D03*
X200Y1200D03*
X400Y1200D03*
X600Y1200D03*
X800Y1200D03*
X1000Y1200D03*
X1200Y1200D03*
X1400Y1200D03*
X1600Y1200D03*
X1800Y1200D03*
X2000Y1200D03*
X2200Y1200D03*
X2400Y1200D03*
X2600Y1200D03*
X2800Y1200D03*
X3000Y1200D03*
X3200Y1200D03*
X3400Y1200D03*
X3600Y1200D03*
X3800Y1200D03*
X4000Y1200D03*
X4200Y1200D03*
X4400Y1200D03*
X4600Y1200D03*
X4800Y1200D03*
X5000Y1200D03*
X5200Y1200D03*
X5400Y1200D03*
X5600Y1200D03*
X5800Y1200D03*
X6000Y1200D03*
X6200Y1200D03*
X6400Y1200D03*
X6600Y1200D03*
X6800Y1200D03*
X7000Y1200D03*
X7200Y1200D03*
X7400Y1200D03*
X7600Y1200D03*
X7800Y1200D03*
X0Y1400D03*
X200Y1400D03*
X400Y1400D03*
X600Y1400D03*
X800Y1400D03*
X1000Y1400D03*
X1200Y1400D03*
X1400Y1400D03*
X1600Y1400D03*
X1800Y1400D03*
X2000Y1400D03*
X2200Y1400D03*
X2400Y1400D03*
X2600Y1400D03*
X2800Y1400D03*
X3000Y1400D03*
X3200Y1400D03*
X3400Y1400D03*
X3600Y1400D03*
X3800Y1400D03*
X4000Y1400D03*
X4200Y1400D03*
X4400Y1400D03*
X4600Y1400D03*
X4800Y1400D03*
X5000Y1400D03*
X5200Y1400D03*
X5400Y1400D03*
X5600Y1400D03*
X5800Y1400D03*
X6000Y1400D03*
X6200Y1400D03*
X6400Y1400D03*
X6600Y1400D03*
X6800Y1400D03*
X7000Y1400D03*
X7200Y1400D03*
X7400Y1400D03*
X7600Y1400D03*
X7800Y1400D03*
X0Y1600D03*
X200Y1600D03*
X400Y1600D03*
X600Y1600D03*
X800Y1600D03*
X1000Y1600D03*
X1200Y1600D03*
X1400Y1600D03*
X1600Y1600D03*
X1800Y1600D03*
X2000Y1600D03*
X2200Y1600D03*
X2400Y1600D03*
X2600Y1600D03*
X2800Y1600D03*
X3000Y1600D03*
X3200Y1600D03*
X3400Y1600D03*
X3600Y1600D03*
X3800Y1600D03*
X4000Y1600D03*
X4200Y1600D03*
X4400Y1600D03*
X4600Y1600D03*
X4800Y1600D03*
X5000Y1600D03*
X5200Y1600D03*
X5400Y1600D03*
X5600Y1600D03*
X5800Y1600D03*
X6000Y1600D03*
X6200Y1600D03*
X6400Y1600D03*
X6600Y1600D03*
X6800Y1600D03*
X7000Y1600D03*
X7200Y1600D03*
X7400Y1600D03*
X7600Y1600D03*
X7800Y1600D03*
X0Y1800D03*
X200Y1800D03*
X400Y1800D03*
X600Y1800D03*
X800Y1800D03*
X1000Y1800D03*
X1200Y1800D03*
X1400Y1800D03*
X1600Y1800D03*
X1800Y1800D03*
X2000Y1800D03*
X2200Y1800D03*
X2400Y1800D03*
X2600Y1800D03*
X2800Y1800D03*
X3000Y1800D03*
X3200Y1800D03*
X3400Y1800D03*
X3600Y1800D03*
X3800Y1800D03*
X4000Y1800D03*
X4200Y1800D03*
X4400Y1800D03*
X4600Y1800D03*
X4800Y1800D03*
X5000Y1800D03*
X5200Y1800D03*
X5400Y1800D03*
X5600Y1800D03*
X5800Y1800D03*
X6000Y1800D03*
X6200Y1800D03*
X6400Y1800D03*
X6600Y1800D03*
X6800Y1800D03*
X7000Y1800D03*
X7200Y1800D03*
X7400Y1800D03*
X7600Y1800D03*
X7800Y1800D03*
X0Y2000D03*
X200Y2000D03*
X400Y2000D03*
X600Y2000D03*
X800Y2000D03*
X1000Y2000D03*
X1200Y2000D03*
X1400Y2000D03*
X1600Y2000D03*
X1800Y2000D03*
X2000Y2000D03*
X2200Y2000D03*
X2400Y2000D03*
X2600Y2000D03*
X2800Y2000D03*
X3000Y2000D03*
X3200Y2000D03*
X3400Y2000D03*
X3600Y2000D03*
X3800Y2000D03*
X4000Y2000D03*
X4200Y2000D03*
X4400Y2000D03*
X4600Y2000D03*
X4800Y2000D03*
X5000Y2000D03*
X5200Y2000D03*
X5400Y2000D03*
X5600Y2000D03*
X5800Y2000D03*
X6000Y2000D03*
X6200Y2000D03*
X6400Y2000D03*
X6600Y2000D03*
X6800Y2000D03*
X7000Y2000D03*
X7200Y2000D03*
X7400Y2000D03*
X7600Y2000D03*
X7800Y2000D03*
X0Y2200D03*
X200Y2200D03*
X400Y2200D03*
X600Y2200D03*
X800Y2200D03*
X1000Y2200D03*
X1200Y2200D03*
X1400Y2200D03*
X1600Y2200D03*
X1800Y2200D03*
X2000Y2200D03*
X2200Y2200D03*
X2400Y2200D03*
X2600Y2200D03*
X2800Y2200D03*
X3000Y2200D03*
X3200Y2200D03*
X3400Y2200D03*
X3600Y2200D03*
X3800Y2200D03*
X4000Y2200D03*
X4200Y2200D03*
X4400Y2200D03*
X4600Y2200D03*
X4800Y2200D03*
X5000Y2200D03*
X5200Y2200D03*
X5400Y2200D03*
X5600Y2200D03*
X5800Y2200D03*
X6000Y2200D03*
X6200Y2200D03*
X6400Y2200D03*
X6600Y2200D03*
X6800Y2200D03*
X7000Y2200D03*
X7200Y2200D03*
X7400Y2200D03*
X7600Y2200D03*
X7800Y2200D03*
X0Y2400D03*
X200Y2400D03*
X400Y2400D03*
X600Y2400D03*
X800Y2400D03*
X1000Y2400D03*
X1200Y2400D03*
X1400Y2400D03*
X1600Y2400D03*
X1800Y2400D03*
X2000Y2400D03*
X2200Y2400D03*
X2400Y2400D03*
X2600Y2400D03*
X2800Y2400D03*
X3000Y2400D03*
X3200Y2400D03*
X3400Y2400D03*
X3600Y2400D03*
X3800Y2400D03*
X4000Y2400D03*
X4200Y2400D03*
X4400Y2400D03*
X4600Y2400D03*
X4800Y2400D03*
X5000Y2400D03*
X5200Y2400D03*
X5400Y2400D03*
X5600Y2400D03*
X5800Y2400D03*
X6000Y2400D03*
X6200Y2400D03*
X6400Y2400D03*
X6600Y2400D03*
X6800Y2400D03*
X7000Y2400D03*
X7200Y2400D03*
X7400Y2400D03*
X7600Y2400D03*
X7800Y2400D03*
X0Y2600D03*
X200Y2600D03*
X400Y2600D03*
X600Y2600D03*
X800Y2600D03*
X1000Y2600D03*
X1200Y2600D03*
X1400Y2600D03*
X1600Y2600D03*
X1800Y2600D03*
X2000Y2600D03*
X2200Y2600D03*
X2400Y2600D03*
X2600Y2600D03*
X2800Y2600D03*
X3000Y2600D03*
X3200Y2600D03*
X3400Y2600D03*
X3600Y2600D03*
X3800Y2600D03*
X4000Y2600D03*
X4200Y2600D03*
X4400Y2600D03*
X4600Y2600D03*
X4800Y2600D03*
X5000Y2600D03*
X5200Y2600D03*
X5400Y2600D03*
X5600Y2600D03*
X5800Y2600D03*
X6000Y2600D03*
X6200Y2600D03*
X6400Y2600D03*
X6600Y2600D03*
X6800Y2600D03*
X7000Y2600D03*
X7200Y2600D03*
X7400Y2600D03*
X7600Y2600D03*
X7800Y2600D03*
X0Y2800D03*
X200Y2800D03*
X400Y2800D03*
X600Y2800D03*
X800Y2800D03*
X1000Y2800D03*
X1200Y2800D03*
X1400Y2800D03*
X1600Y2800D03*
X1800Y2800D03*
X2000Y2800D03*
X2200Y2800D03*
X2400Y2800D03*
X2600Y2800D03*
X2800Y2800D03*
X3000Y2800D03*
X3200Y2800D03*
X3400Y2800D03*
X3600Y2800D03*
X3800Y2800D03*
X4000Y2800D03*
X4200Y2800D03*
X4400Y2800D03*
X4600Y2800D03*
X4800Y2800D03*
X5000Y2800D03*
X5200Y2800D03*
X5400Y2800D03*
X5600Y2800D03*
X5800Y2800D03*
X6000Y2800D03*
X6200Y2800D03*
X6400Y2800D03*
X6600Y2800D03*
X6800Y2800D03*
X7000Y2800D03*
X7200Y2800D03*
X7400Y2800D03*
X7600Y2800D03*
X7800Y2800D03*
X0Y3000D03*
X200Y3000D03*
X400Y3000D03*
X600Y3000D03*
X800Y3000D03*
X1000Y3000D03*
X1200Y3000D03*
X1400Y3000D03*
X1600Y3000D03*
X1800Y3000D03*
X2000Y3000D03*
X2200Y3000D03*
X2400Y3000D03*
X2600Y3000D03*
X2800Y3000D03*
X3000Y3000D03*
X3200Y3000D03*
X3400Y3000D03*
X3600Y3000D03*
X3800Y3000D03*
X4000Y3000D03*
X4200Y3000D03*
X4400Y3000D03*
X4600Y3000D03*
X4800Y3000D03*
X5000Y3000D03*
X5200Y3000D03*
X5400Y3000D03*
X5600Y3000D03*
X5800Y3000D03*
X6000Y3000D03*
X6200Y3000D03*
X6400Y3000D03*
X6600Y3000D03*
X6800Y3000D03*
X7000Y3000D03*
X7200Y3000D03*
X7400Y3000D03*
X7600Y3000D03*
X7800Y3000D03*
X0Y3200D03*
X200Y3200D03*
X400Y3200D03*
X600Y3200D03*
X800Y3200D03*
X1000Y3200D03*
X1200Y3200D03*
X1400Y3200D03*
X1600Y3200D03*
X1800Y3200D03*
X2000Y3200D03*
X2200Y3200D03*
X2400Y3200D03*
X2600Y3200D03*
X2800Y3200D03*
X3000Y3200D03*
X3200Y3200D03*
X3400Y3200D03*
X3600Y3200D03*
X3800Y3200D03*
X4000Y3200D03*
X4200Y3200D03*
X4400Y3200D03*
X4600Y3200D03*
X4800Y3200D03*
X5000Y3200D03*
X5200Y3200D03*
X5400Y3200D03*
X5600Y3200D03*
X5800Y3200D03*
X6000Y3200D03*
X6200Y3200D03*
X6400Y3200D03*
X6600Y3200D03*
X6800Y3200D03*
X7000Y3200D03*
X7200Y3200D03*
X7400Y3200D03*
X7600Y3200D03*
X7800Y3200D03*
X0Y3400D03*
X200Y3400D03*
X400Y3400D03*
X600Y3400D03*
X800Y3400D03*
X1000Y3400D03*
X1200Y3400D03*
X1400Y3400D03*
X1600Y3400D03*
X1800Y3400D03*
X2000Y3400D03*
X2200Y3400D03*
X2400Y3400D03*
X2600Y3400D03*
X2800Y3400D03*
X3000Y3400D03*
X3200Y3400D03*
X3400Y3400D03*
X3600Y3400D03*
X3800Y3400D03*
X4000Y3400D03*
X4200Y3400D03*
X4400Y3400D03*
X4600Y3400D03*
X4800Y3400D03*
X5000Y3400D03*
X5200Y3400D03*
X5400Y3400D03*
X5600Y3400D03*
X5800Y3400D03*
X6000Y3400D03*
X6200Y3400D03*
X6400Y3400D03*
X6600Y3400D03*
X6800Y3400D03*
X7000Y3400D03*
X7200Y3400D03*
X7400Y3400D03*
X7600Y3400D03*
X7800Y3400D03*
X0Y3600D03*
X200Y3600D03*
X400Y3600D03*
X600Y3600D03*
X800Y3600D03*
X1000Y3600D03*
X1200Y3600D03*
X1400Y3600D03*
X1600Y3600D03*
X1800Y3600D03*
X2000Y3600D03*
X2200Y3600D03*
X2400Y3600D03*
X2600Y3600D03*
X2800Y3600D03*
X3000Y3600D03*
X3200Y3600D03*
X3400Y3600D03*
X3600Y3600D03*
X3800Y3600D03*
X4000Y3600D03*
X4200Y3600D03*
X4400Y3600D03*
X4600Y3600D03*
X4800Y3600D03*
X5000Y3600D03*
X5200Y3600D03*
X5400Y3600D03*
X5600Y3600D03*
X5800Y3600D03*
X6000Y3600D03*
X6200Y3600D03*
X6400Y3600D03*
X6600Y3600D03*
X6800Y3600D03*
X7000Y3600D03*
X7200Y3600D03*
X7400Y3600D03*
X7600Y3600D03*
X7800Y3600D03*
X0Y3800D03*
X200Y3800D03*
X400Y3800D03*
X600Y3800D03*
X800Y3800D03*
X1000Y3800D03*
X1200Y3800D03*
X1400Y3800D03*
X1600Y3800D03*
X1800Y3800D03*
X2000Y3800D03*
X2200Y3800D03*
X2400Y3800D03*
X2600Y3800D03*
X2800Y3800D03*
X3000Y3800D03*
X3200Y3800D03*
X3400Y3800D03*
X3600Y3800D03*
X3800Y3800D03*
X4000Y3800D03*
X4200Y3800D03*
X4400Y3800D03*
X4600Y3800D03*
X4800Y3800D03*
X5000Y3800D03*
X5200Y3800D03*
X5400Y3800D03*
X5600Y3800D03*
X5800Y3800D03*
X6000Y3800D03*
X6200Y3800D03*
X6400Y3800D03*
X6600Y3800D03*
X6800Y3800D03*
X7000Y3800D03*
X7200Y3800D03*
X7400Y3800D03*
X7600Y3800D03*
X7800Y3800D03*
X0Y4000D03*
X200Y4000D03*
X400Y4000D03*
X600Y4000D03*
X800Y4000D03*
X1000Y4000D03*
X1200Y4000D03*
X1400Y4000D03*
X1600Y4000D03*
X1800Y4000D03*
X2000Y4000D03*
X2200Y4000D03*
X2400Y4000D03*
X2600Y4000D03*
X2800Y4000D03*
X3000Y4000D03*
X3200Y4000D03*
X3400Y4000D03*
X3600Y4000D03*
X3800Y4000D03*
X4000Y4000D03*
X4200Y4000D03*
X4400Y4000D03*
X4600Y4000D03*
X4800Y4000D03*
X5000Y4000D03*
X5200Y4000D03*
X5400Y4000D03*
X5600Y4000D03*
X5800Y4000D03*
X6000Y4000D03*
X6200Y4000D03*
X6400Y4000D03*
X6600Y4000D03*
X6800Y4000D03*
X7000Y4000D03*
X7200Y4000D03*
X7400Y4000D03*
X7600Y4000D03*
X7800Y4000D03*
X0Y4200D03*
X200Y4200D03*
X400Y4200D03*
X600Y4200D03*
X800Y4200D03*
X1000Y4200D03*
X1200Y4200D03*
X1400Y4200D03*
X1600Y4200D03*
X1800Y4200D03*
X2000Y4200D03*
X2200Y4200D03*
X2400Y4200D03*
X2600Y4200D03*
X2800Y4200D03*
X3000Y4200D03*
X3200Y4200D03*
X3400Y4200D03*
X3600Y4200D03*
X3800Y4200D03*
X4000Y4200D03*
X4200Y4200D03*
X4400Y4200D03*
X4600Y4200D03*
X4800Y4200D03*
X5000Y4200D03*
X5200Y4200D03*
X5400Y4200D03*
X5600Y4200D03*
X5800Y4200D03*
X6000Y4200D03*
X6200Y4200D03*
X6400Y4200D03*
X6600Y4200D03*
X6800Y4200D03*
X7000Y4200D03*
X7200Y4200D03*
X7400Y4200D03*
X7600Y4200D03*
X7800Y4200D03*
X0Y4400D03*
X200Y4400D03*
X400Y4400D03*
X600Y4400D03*
X800Y4400D03*
X1000Y4400D03*
X1200Y4400D03*
X1400Y4400D03*
X1600Y4400D03*
X1800Y4400D03*
X2000Y4400D03*
X2200Y4400D03*
X2400Y4400D03*
X2600Y4400D03*
X2800Y4400D03*
X3000Y4400D03*
X3200Y4400D03*
X3400Y4400D03*
X3600Y4400D03*
X3800Y4400D03*
X4000Y4400D03*
X4200Y4400D03*
X4400Y4400D03*
X4600Y4400D03*
X4800Y4400D03*
X5000Y4400D03*
X5200Y4400D03*
X5400Y4400D03*
X5600Y4400D03*
X5800Y4400D03*
X6000Y4400D03*
X6200Y4400D03*
X6400Y4400D03*
X6600Y4400D03*
X6800Y4400D03*
X7000Y4400D03*
X7200Y4400D03*
X7400Y4400D03*
X7600Y4400D03*
X7800Y4400D03*
X0Y4600D03*
X200Y4600D03*
X400Y4600D03*
X600Y4600D03*
X800Y4600D03*
X1000Y4600D03*
X1200Y4600D03*
X1400Y4600D03*
X1600Y4600D03*
X1800Y4600D03*
X2000Y4600D03*
X2200Y4600D03*
X2400Y4600D03*
X2600Y4600D03*
X2800Y4600D03*
X3000Y4600D03*
X3200Y4600D03*
X3400Y4600D03*
X3600Y4600D03*
X3800Y4600D03*
X4000Y4600D03*
X4200Y4600D03*
X4400Y4600D03*
X4600Y4600D03*
X4800Y4600D03*
X5000Y4600D03*
X5200Y4600D03*
X5400Y4600D03*
X5600Y4600D03*
X5800Y4600D03*
X6000Y4600D03*
X6200Y4600D03*
X6400Y4600D03*
X6600Y4600D03*
X6800Y4600D03*
X7000Y4600D03*
X7200Y4600D03*
X7400Y4600D03*
X7600Y4600D03*
X7800Y4600D03*
X0Y4800D03*
X200Y4800D03*
X400Y4800D03*
X600Y4800D03*
X800Y4800D03*
X1000Y4800D03*
X1200Y4800D03*
X1400Y4800D03*
X1600Y4800D03*
X1800Y4800D03*
X2000Y4800D03*
X2200Y4800D03*
X2400Y4800D03*
X2600Y4800D03*
X2800Y4800D03*
X3000Y4800D03*
X3200Y4800D03*
X3400Y4800D03*
X3600Y4800D03*
X3800Y4800D03*
X4000Y4800D03*
X4200Y4800D03*
X4400Y4800D03*
X4600Y4800D03*
X4800Y4800D03*
X5000Y4800D03*
X5200Y4800D03*
X5400Y4800D03*
X5600Y4800D03*
X5800Y4800D03*
X6000Y4800D03*
X6200Y4800D03*
X6400Y4800D03*
X6600Y4800D03*
X6800Y4800D03*
X7000Y4800D03*
X7200Y4800D03*
X7400Y4800D03*
X7600Y4800D03*
X7800Y4800D03*
%SR*%
M02*